<svg xmlns="http://www.w3.org/2000/svg" version="1.1" xmlns:xlink="http://www.w3.org/1999/xlink" xmlns:svgjs="http://svgjs.dev/svgjs" width="1500" height="1500" viewBox="0 0 1500 1500"><rect width="1500" height="1500" fill="#89939e"></rect><g transform="matrix(0.6666666666666666,0,0,0.6666666666666666,249.54552208560676,331.320430107527)"><svg viewBox="0 0 297 248" data-background-color="#89939e" preserveAspectRatio="xMidYMid meet" height="1252" width="1500" xmlns="http://www.w3.org/2000/svg" xmlns:xlink="http://www.w3.org/1999/xlink"><g id="tight-bounds" transform="matrix(1,0,0,1,0.13497994057479445,0.4000000000000057)"><svg viewBox="0 0 296.7300401188504 247.2" height="247.2" width="296.7300401188504"><g><svg viewBox="0 0 395.52 329.49998578114565" height="247.2" width="296.7300401188504"><g transform="matrix(1,0,0,1,0,244.92037287791985)"><svg viewBox="0 0 395.52 84.57961290322581" height="84.57961290322581" width="395.52"><g id="textblocktransform"><svg viewBox="0 0 395.52 84.57961290322581" height="84.57961290322581" width="395.52" id="textblock"><g><svg viewBox="0 0 395.52 84.57961290322581" height="84.57961290322581" width="395.52"><g transform="matrix(1,0,0,1,0,0)"><svg width="395.52" viewBox="4.69 -38.84 181.63 38.84" height="84.57961290322581" data-palette-color="#ffffff"><path d="M4.69 0L4.69-38.84 10.52-38.84 10.52-15.26 15.28-15.26 20.83-25.56 26.95-25.56 21.07-15.33Q22.05-15.16 22.9-14.61 23.75-14.06 24.38-13.22 25-12.38 25.35-11.32 25.71-10.25 25.71-9.06L25.71-9.06 25.71-4.17 31.32-4.17Q31.23-3.32 30.85-2.55 30.47-1.78 29.9-1.22 29.32-0.66 28.59-0.33 27.86 0 27.05 0L27.05 0 24.54 0Q23.58 0 22.74-0.49 21.9-0.98 21.26-1.82 20.63-2.66 20.26-3.78 19.9-4.91 19.9-6.2L19.9-6.2 19.9-11.16 10.52-11.16 10.52 0 4.69 0ZM35.52-6.13L35.52-18.68Q35.52-20.14 35.92-21.41 36.33-22.68 37.03-23.61 37.74-24.54 38.71-25.06 39.67-25.59 40.79-25.59L40.79-25.59 57.25-25.59 57.25-4.17 62.55-4.17Q62.45-3.32 62.07-2.55 61.69-1.78 61.12-1.22 60.54-0.66 59.81-0.33 59.08 0 58.27 0L58.27 0 55.66 0Q54.47 0 53.39-0.82 52.32-1.64 51.61-3.03L51.61-3.03Q50.9-1.64 49.83-0.82 48.75 0 47.56 0L47.56 0 40.16 0Q39.21 0 38.35-0.49 37.5-0.98 36.87-1.81 36.25-2.64 35.89-3.75 35.52-4.86 35.52-6.13L35.52-6.13ZM41.33-4.17L51.44-4.17 51.44-21.39 41.33-21.39 41.33-4.17ZM66.79 0L66.79-38.84 72.63-38.84 72.63-15.26 77.39-15.26 82.93-25.56 89.06-25.56 83.17-15.33Q84.15-15.16 85-14.61 85.86-14.06 86.48-13.22 87.1-12.38 87.46-11.32 87.81-10.25 87.81-9.06L87.81-9.06 87.81-4.17 93.43-4.17Q93.33-3.32 92.95-2.55 92.57-1.78 92-1.22 91.43-0.66 90.69-0.33 89.96 0 89.16 0L89.16 0 86.64 0Q85.69 0 84.85-0.49 84-0.98 83.37-1.82 82.73-2.66 82.37-3.78 82-4.91 82-6.2L82-6.2 82-11.16 72.63-11.16 72.63 0 66.79 0ZM97.33-6.2L97.33-25.56 103.17-25.56 103.17-4.17 113.25-4.17 113.25-25.56 119.06-25.56 119.06-4.17 124.02-4.17Q123.92-3.32 123.54-2.55 123.16-1.78 122.59-1.22 122.01-0.66 121.28-0.33 120.55 0 119.74 0L119.74 0 115.15 0 113.25-3.1Q112.98-2.42 112.57-1.84 112.15-1.27 111.63-0.87 111.1-0.46 110.53-0.23 109.95 0 109.42 0L109.42 0 101.97 0Q101.02 0 100.16-0.49 99.31-0.98 98.69-1.82 98.06-2.66 97.7-3.78 97.33-4.91 97.33-6.2L97.33-6.2ZM125.7 0L135.95-27.03 141.81-27.03Q141.59-26.49 141.48-25.96 141.37-25.44 141.32-25.1L141.32-25.1Q141.25-24.19 141.62-23.46 141.98-22.73 142.6-22.06 143.23-21.39 144.05-20.73 144.86-20.07 145.72-19.34L145.72-19.34Q146.69-18.55 147.7-17.54 148.7-16.53 149.5-15.32 150.31-14.11 150.81-12.76 151.31-11.4 151.26-9.94L151.26-9.94Q151.21-8.91 150.82-7.97 150.43-7.03 149.79-6.29 149.16-5.54 148.32-5 147.48-4.47 146.55-4.22L146.55-4.22 155.63-4.22Q155.29-3.27 154.81-2.5 154.34-1.73 153.74-1.17 153.14-0.61 152.43-0.31 151.72 0 150.97 0L150.97 0 144.28 0Q143.15 0 142.41-0.35 141.66-0.71 141.24-1.29 140.81-1.88 140.65-2.65 140.49-3.42 140.57-4.25L140.57-4.25Q141.35-4.35 142.1-4.66 142.86-4.98 143.46-5.58 144.06-6.18 144.46-7.08 144.86-7.98 144.96-9.25L144.96-9.25Q145.06-10.25 144.77-11.13 144.47-12.01 143.98-12.79 143.5-13.57 142.86-14.28 142.23-14.99 141.62-15.65L141.62-15.65Q140.98-16.48 140.35-17.65 139.71-18.82 139.44-20.51L139.44-20.51 131.73 0 125.7 0ZM159.36 0L159.36-38.82 165.2-38.82 165.2-22.78Q165.88-24.1 166.89-24.83 167.91-25.56 169.1-25.56L169.1-25.56 176.45-25.56Q177.4-25.56 178.25-25.07 179.09-24.58 179.72-23.74 180.36-22.9 180.72-21.78 181.09-20.65 181.09-19.36L181.09-19.36 181.09-4.17 186.32-4.17Q186.22-3.32 185.84-2.55 185.46-1.78 184.9-1.22 184.34-0.66 183.61-0.33 182.87 0 182.09 0L182.09 0 179.92 0Q178.97 0 178.11-0.49 177.26-0.98 176.62-1.82 175.99-2.66 175.62-3.78 175.26-4.91 175.26-6.2L175.26-6.2 175.26-21.39 165.2-21.39 165.2 0 159.36 0Z" opacity="1" transform="matrix(1,0,0,1,0,0)" fill="#ffffff" class="wordmark-text-0" data-fill-palette-color="primary" id="text-0"></path></svg></g></svg></g></svg></g></svg></g><g transform="matrix(1,0,0,1,95.26703025678201,0)"><svg viewBox="0 0 204.98593948643597 204.98593948643597" height="204.98593948643597" width="204.98593948643597"><g><svg></svg></g><g id="icon-0"><svg viewBox="0 0 204.98593948643597 204.98593948643597" height="204.98593948643597" width="204.98593948643597"><g><path d="M0 102.493c0-56.605 45.888-102.493 102.493-102.493 56.605 0 102.493 45.888 102.493 102.493 0 56.605-45.888 102.493-102.493 102.493-56.605 0-102.493-45.888-102.493-102.493zM102.493 197.358c52.393 0 94.865-42.473 94.865-94.865 0-52.393-42.473-94.865-94.865-94.866-52.393 0-94.865 42.473-94.866 94.866 0 52.393 42.473 94.865 94.866 94.865z" data-fill-palette-color="accent" fill="#ffffff" stroke="transparent"></path></g><g transform="matrix(1,0,0,1,59.84252160611591,44.05488997627993)"><svg viewBox="0 0 85.30089627420415 116.8761595338761" height="116.8761595338761" width="85.30089627420415"><g><svg xmlns="http://www.w3.org/2000/svg" xmlns:xlink="http://www.w3.org/1999/xlink" version="1.1" x="0" y="0" viewBox="13.508 0 72.98400000000001 100" enable-background="new 0 0 100 100" xml:space="preserve" height="116.8761595338761" width="85.30089627420415" class="icon-dxe-0" data-fill-palette-color="accent" id="dxe-0"><polygon points="71.159,100 86.492,100 82.95,82.61 71.159,82.61 " fill="#ffffff" data-fill-palette-color="accent"></polygon><polygon points="81.295,26.577 81.295,49.78 77.823,49.78 77.823,67.715 79.879,67.715 79.879,75.33 78.06,81.395 72.798,81.395   72.798,69.604 72.798,67.715 72.798,49.78 72.798,48.692 72.798,26.577 " fill="#ffffff" data-fill-palette-color="accent"></polygon><polygon points="28.84,100 13.508,100 17.05,82.61 28.84,82.61 " fill="#ffffff" data-fill-palette-color="accent"></polygon><polygon points="18.705,26.577 18.705,49.78 22.177,49.78 22.177,67.715 20.122,67.715 20.122,75.33 21.94,81.395 27.203,81.395   27.203,69.604 27.203,67.715 27.203,49.78 27.203,48.692 27.203,26.577 " fill="#ffffff" data-fill-palette-color="accent"></polygon><rect x="29.091" y="21.886" width="41.817" height="3.452" fill="#ffffff" data-fill-palette-color="accent"></rect><path d="M50 0C38.453 0 29.091 9.361 29.091 20.909H70.908C70.908 9.361 61.548 0 50 0M49.521 13.272A4.132 4.132 0 1 1 49.521 5.008 4.132 4.132 0 0 1 49.521 13.272M60.146 18.466A2.48 2.48 0 1 1 60.146 13.508 2.48 2.48 0 0 1 60.146 18.466" fill="#ffffff" data-fill-palette-color="accent"></path><polygon points="61.88,74.906 35.195,74.906 29.091,74.906 35.195,81.011 61.88,81.011 70.908,74.906 " fill="#ffffff" data-fill-palette-color="accent"></polygon><path d="M29.091 26.577V74.091H70.908V26.577zM50 71.919A3.238 3.238 0 1 1 50 65.444 3.238 3.238 0 0 1 50 71.919M53.958 59.114C53.958 60.812 52.407 62.19 50.494 62.19H49.505C47.592 62.19 46.042 60.812 46.042 59.114V56.152C46.042 54.453 47.592 53.075 49.505 53.075H50.494C52.407 53.075 53.958 54.453 53.958 56.152zM53.958 49.083C53.958 50.781 52.407 52.159 50.494 52.159H49.505C47.592 52.159 46.042 50.781 46.042 49.083V46.121C46.042 44.422 47.592 43.045 49.505 43.045H50.494C52.407 43.045 53.958 44.422 53.958 46.121zM62.185 39.048L58.64 39.724 52.763 38.578V39.724H41.953L40.332 39.048H37.815V36.752H40.332L41.953 36.076H52.763V37.222L58.64 36.076 62.185 36.752zM62.185 33.052H59.667L58.047 33.727H47.237V32.582L41.36 33.727 37.815 33.052V30.755L41.36 30.079 47.237 31.225V30.08H58.047L59.667 30.756H62.185z" fill="#ffffff" data-fill-palette-color="accent"></path></svg></g></svg></g></svg></g></svg></g><g></g></svg></g><defs></defs></svg><rect width="296.7300401188504" height="247.2" fill="none" stroke="none" visibility="hidden"></rect></g></svg></g></svg>